<svg id="Layer_1" data-name="Layer 1" xmlns="http://www.w3.org/2000/svg" viewBox="0 0 19.3 15.68"><defs><style>.cls-1{fill:gray}</style></defs><path class="cls-1" d="M19.3 1.86a7.91 7.91 0 0 1-2.3.62A4 4 0 0 0 18.76.29a7.92 7.92 0 0 1-2.51 1A4 4 0 0 0 9.5 4.86 11.24 11.24 0 0 1 1.34.72 4 4 0 0 0 2.57 6a3.94 3.94 0 0 1-1.79-.5A4 4 0 0 0 4 9.45a4 4 0 0 1-1.79.07 4 4 0 0 0 3.7 2.75A7.94 7.94 0 0 1 .94 14a8 8 0 0 1-.94-.1 11.21 11.21 0 0 0 6.07 1.78A11.19 11.19 0 0 0 17.33 4.42v-.51a8 8 0 0 0 1.97-2.05z"/></svg>