<svg id="Layer_1" data-name="Layer 1" xmlns="http://www.w3.org/2000/svg" viewBox="0 0 19.32 19.32"><defs><style>.cls-1{fill:gray;fill-rule:evenodd}</style></defs><path class="cls-1" d="M17.1 8.18h-1.69a5.95 5.95 0 1 1-11.5 0H2.23v8.18a.74.74 0 0 0 .74.74h13.38a.74.74 0 0 0 .74-.74V8.18zm0-5.2a.74.74 0 0 0-.74-.74h-2.24a.74.74 0 0 0-.74.74V5.2a.74.74 0 0 0 .74.74h2.23a.74.74 0 0 0 .75-.74V3zm-7.43 3a3.72 3.72 0 1 0 3.72 3.72 3.72 3.72 0 0 0-3.73-3.75m7.44 13.37H2.23A2.23 2.23 0 0 1 0 17.09V2.23A2.23 2.23 0 0 1 2.23 0H17.1a2.23 2.23 0 0 1 2.23 2.23v14.86a2.23 2.23 0 0 1-2.23 2.23"/></svg>