<svg id="Layer_1" xmlns="http://www.w3.org/2000/svg" width="52.8" height="53" viewBox="0 0 52.8 53"><style>.st0{fill:#3b5998}.st1{fill:#dd4b39}.st2{fill:#cc2127}.st3{fill:#febe12}.st4{fill:#55acee}</style><path id="XMLID_12_" class="st2" d="M0 0h52.8v53H0V0zm28 32c5.4.4 8.5-5.4 7.7-10.8-.7-4.8-5.4-7.2-10.5-6.7-4 .5-8 3.7-8.2 8.4-.1 2.8.7 5 3.4 5.6 1.2-2.1-.4-2.5-.6-4-1-6.1 7.1-10.3 11.3-6 2.9 3 1 12.1-3.7 11.1-4.5-.9 2.2-8.2-1.4-9.6-2.9-1.2-4.5 3.5-3.1 5.9-.8 4-2.6 7.8-1.9 12.9 2.3-1.7 3.1-4.9 3.7-8.2 1.2.5 1.8 1.2 3.3 1.4z"/></svg>