<svg id="Layer_1" xmlns="http://www.w3.org/2000/svg" width="52.8" height="53" viewBox="0 0 52.8 53"><style>.st0{fill:#3b5998}.st1{fill:#dd4b39}.st2{fill:#cc2127}.st3{fill:#febe12}.st4{fill:#55acee}</style><path id="XMLID_1_" class="st4" d="M0 0h52.8v53H0V0zm38.5 19c-.9.4-1.9.7-2.9.8 1-.6 1.8-1.6 2.2-2.8-1 .6-2 1-3.2 1.2-.9-1-2.2-1.6-3.6-1.6-2.7 0-5 2.2-5 5 0 .4 0 .8.1 1.1-4.1-.2-7.8-2.2-10.3-5.2-.4.7-.7 1.6-.7 2.5 0 1.7.9 3.2 2.2 4.1-.8 0-1.6-.2-2.3-.6v.1c0 2.4 1.7 4.4 4 4.9-.4.1-.9.2-1.3.2-.3 0-.6 0-.9-.1.6 2 2.5 3.4 4.6 3.5-1.7 1.3-3.8 2.1-6.2 2.1-.4 0-.8 0-1.2-.1 2.2 1.4 4.8 2.2 7.6 2.2 9.1 0 14.2-7.6 14.2-14.2v-.6c1.2-.6 2.1-1.5 2.7-2.5z"/></svg>