<svg id="ottawa-logo" xmlns="http://www.w3.org/2000/svg" viewBox="-190 467.4 418.3 91.6"><style>.logo-wordmark{fill:#ec1b34}</style><path class="logo-wordmark" d="M-2.7 468.9h-100.5v11.9h21.9v76.7h12.6v-76.7h31.2v76.7h12.6v-76.7h22.2v-11.9zm-141.2-1.5c-25.4 0-46.1 20.6-46.1 45.9 0 25.2 20.7 45.7 46.1 45.7s46.1-20.5 46.1-45.7c0-25.3-20.7-45.9-46.1-45.9zm0 79.2c-18.3 0-34.2-15-34.2-33.4s15.9-34.5 34.2-34.5c18.2 0 34.2 16.1 34.2 34.5s-15.9 33.4-34.2 33.4zm278.4 10.8c2.4 0 3.7-1.1 4.1-2.5l29.3-86h-13.2s-18.6 57.6-20.3 62.5c-1.4-3.6-15.4-41.2-22.7-59.3-.6-1.9-2.4-3.3-4.4-3.3s-3.8 1.4-4.4 3.3c-6.8 16.8-19.2 50.6-22.7 59.3-1.7-4.9-20.3-62.5-20.3-62.5H46.7L76 554.8c.5 1.4 1.9 2.6 4.2 2.6 2.2 0 3.7-1.2 4.2-2.6 7.2-18.6 21.6-56.4 23-59.9 1.6 4.1 1.6 4.1 23.1 60 .7 1.5 1.8 2.5 4 2.5zM29.4 471.1c-.6-1.5-2.2-2.4-4.2-2.4s-3.6.9-4.1 2.4l-33.8 86.4H-.3s7.8-20.1 8.3-21.3h34.4c.5 1.2 8.4 21.3 8.4 21.3h12.3l-33.7-86.4zm-17.2 54.3c2.4-6 4.8-12.1 13-33.2 8.9 22.9 9.9 25.5 12.9 33.2H12.2zm182.4-54.3c-.6-1.5-2.2-2.4-4.2-2.4s-3.6.9-4.1 2.4l-33.8 86.4h12.4s7.8-20.1 8.3-21.3h34.4c.5 1.2 8.4 21.3 8.4 21.3h12.3l-33.7-86.4zm-17.1 54.3c2.4-6 4.8-12.1 13-33.2 8.9 22.9 9.9 25.5 12.9 33.2h-25.9z"/></svg>